<svg width="120" height="10" viewBox="0 0 120 10" fill="none" xmlns="http://www.w3.org/2000/svg">
<path fill-rule="evenodd" clip-rule="evenodd" d="M7.23523 0.333008L3.94883 9.66634H6.38013L9.66653 0.333008H7.23523ZM3.2859 0.333008L0 9.66634H2.4313L5.7172 0.333008H3.2859Z" fill="#3DB7E4"/>
<mask id="mask0_5779_49703" style="mask-type:luminance" maskUnits="userSpaceOnUse" x="12" y="0" width="108" height="10">
<path d="M12.2109 0.0126953H119.88V10.0001H12.2109V0.0126953Z" fill="#002D5D"/>
</mask>
<g mask="url(#mask0_5779_49703)">
<path fill-rule="evenodd" clip-rule="evenodd" d="M109.541 4.04223H106.358V0.245892H104.096V9.83689H106.358V5.87523H109.541V9.83689H111.762V0.245892H109.541V4.04223ZM119.88 1.96066V0.244359H113.824V9.83536H119.866V8.12589H116.085V5.77696H119.391V4.02959H116.085V1.96066H119.88ZM97.142 3.35646C97.3098 2.24329 98.1299 1.94383 98.6566 1.94383H98.7059H98.7069H98.708H98.7551C99.2755 1.94383 100.058 2.24962 100.309 3.50909L102.443 2.98539C101.914 0.750659 100.205 0.255392 99.8611 0.171192C99.4735 0.0754021 99.1082 0.0159287 98.708 0.0117188H98.7075H98.7064C98.3051 0.0159294 97.871 0.0654021 97.4835 0.160665C97.1378 0.245929 95.4061 0.744865 94.8899 3.0196C94.757 3.6038 94.6967 4.3617 94.6967 4.81907V5.18487C94.6967 5.64223 94.757 6.40013 94.8899 6.98433C95.4061 9.25907 97.1378 9.75803 97.4835 9.84327C97.871 9.93853 98.3051 9.988 98.7059 9.99221H98.7069H98.708C99.1082 9.988 99.4735 9.92853 99.8611 9.83274C100.205 9.74853 101.914 9.25327 102.443 7.01854L100.309 6.49484C100.058 7.75431 99.2755 8.06011 98.7551 8.06011H98.708H98.7069H98.7059H98.6566C98.1299 8.06011 97.3098 7.76063 97.142 6.64747C97.0864 6.27957 97.043 5.78801 97.0361 5.29591V4.70801C97.043 4.21591 97.0864 3.72433 97.142 3.35646ZM82.2607 3.30541C82.2607 2.87911 82.1421 2.53857 81.9081 2.29384C81.6735 2.04858 81.3257 1.92437 80.8747 1.92437H79.5607V4.67331H80.8747C81.3305 4.67331 81.6794 4.5512 81.9113 4.31014C82.1432 4.07014 82.2607 3.73224 82.2607 3.30541ZM82.8023 5.82171L85.048 9.75804V9.80541H82.5434L80.6873 6.38341H79.5607V9.80541H77.4038V0.214409H80.8745C82.0133 0.214409 82.9154 0.468092 83.5554 0.968609C84.1923 1.46704 84.5153 2.18178 84.5153 3.09281C84.5153 3.75491 84.3792 4.31018 84.1103 4.74388C83.8419 5.17758 83.4151 5.53388 82.8418 5.80334L82.8023 5.82171ZM63.5719 6.79434L61.7042 0.214339H59.3377L62.3193 9.80534H64.825L67.8332 0.214339H65.4662L63.5719 6.79434ZM69.3969 9.80541H75.4396V8.09594H71.6586V5.74701H74.9637V3.99911H71.6586V1.93067H75.4533V0.214372H69.3969V9.80541ZM89.9793 3.95107C89.1904 3.77002 88.1512 3.61424 88.1512 2.80317C88.1512 2.41844 88.5186 2.12474 88.9316 2.00527C89.1513 1.94159 89.3847 1.90948 89.6267 1.90948C89.7998 1.90948 89.9782 1.93738 90.1561 1.99211C90.3292 2.04685 90.5023 2.13001 90.6707 2.23896C90.8417 2.35001 90.9883 2.5158 91.1064 2.73212C91.1308 2.77791 91.1541 2.82739 91.1768 2.88423L93.186 2.38266C93.0986 2.09003 92.9128 1.7232 92.7206 1.47003C92.3691 1.0074 91.955 0.654229 91.4024 0.402129C90.8486 0.150549 90.2514 0.0231954 89.6267 0.0231954C89.2863 0.0231954 88.9475 0.0568787 88.6203 0.123195C88.2974 0.188985 87.9745 0.301089 87.6605 0.455825C87.3508 0.610035 87.0771 0.797392 86.8468 1.01373C86.6228 1.22373 86.437 1.50109 86.2957 1.83953C86.158 2.169 86.0881 2.61796 86.0881 3.01426C86.0881 3.44426 86.2337 3.96163 86.4428 4.27269C87.0146 5.12586 87.634 5.32796 89.6362 5.84376C90.4071 6.04271 91.2393 6.37219 91.2393 7.05956C91.2393 7.54009 90.8385 8.07693 89.7119 8.07693C88.9194 8.07693 88.1348 7.61799 87.9278 6.83273L85.879 7.34379C85.9017 7.43748 86.5291 9.99959 89.684 9.99959C92.753 9.99959 93.3756 7.82696 93.3756 6.94749C93.3756 4.72276 91.2844 4.25054 89.9793 3.95107ZM17.6559 4.01055H14.4726V0.214212H12.2109V9.80521H14.4726V5.84355H17.6559V9.80521H19.8763V0.214212H17.6559V4.01055ZM26.6696 6.60161L25.6034 3.13228L24.5371 6.60161H26.6696ZM26.6754 0.214279L30.0214 9.80528H27.655L27.2007 8.32948H24.0063L23.552 9.80528H21.1856L24.5319 0.214279H26.6754ZM46.5148 5.97995L43.0941 0.213612H41.0061V9.80528H43.1635V4.03961L46.5908 9.80528H48.665V0.213612H46.5146L46.5148 5.97995ZM56.2114 4.71888C56.2045 4.22731 56.1611 3.73518 56.1055 3.36781C55.9377 2.25465 55.0404 1.95465 54.5199 1.95465H54.4723H54.4712H54.4707H54.4215C53.8947 1.95465 53.0053 2.25465 52.8375 3.36781C52.7819 3.73518 52.7379 4.22728 52.7316 4.71888V5.29995C52.7379 5.79205 52.7819 6.28365 52.8375 6.65151C53.0053 7.76468 53.8947 8.06468 54.4215 8.06468H54.4707H54.4712H54.4723H54.5199C55.0403 8.06468 55.9377 7.76468 56.1055 6.65151C56.1611 6.28361 56.2045 5.79205 56.2114 5.29995V4.71888ZM58.3577 3.03045C58.4905 3.61465 58.5509 4.37255 58.5509 4.82991V5.18885C58.5509 5.64621 58.4905 6.40411 58.3577 6.98831C57.8415 9.26305 56.1098 9.76251 55.7641 9.84725C55.3765 9.94251 54.8731 9.99198 54.4723 9.99619H54.4712H54.4707C54.0699 9.99198 53.5659 9.94251 53.1789 9.84725C52.8332 9.76251 51.1015 9.26305 50.5848 6.98831C50.4525 6.40411 50.3921 5.64621 50.3921 5.18885V4.82991C50.3921 4.37255 50.4525 3.61465 50.5848 3.03045C51.1015 0.756245 52.8332 0.256745 53.1789 0.171512C53.5659 0.0762488 54.0699 0.0273021 54.4707 0.0230921H54.4712H54.4723C54.8731 0.0273028 55.3765 0.0762488 55.7641 0.171512C56.1098 0.256775 57.8415 0.756245 58.3577 3.03045ZM36.8663 0.214145H39.0168V9.80515H36.9426L33.5146 4.03981V9.80515H31.3577V0.214145H33.4457L36.8664 5.98048L36.8663 0.214145Z" fill="#002D5D"/>
</g>
</svg>
