<svg width="136" height="24" viewBox="0 0 136 24" fill="none" xmlns="http://www.w3.org/2000/svg">
<circle opacity="0.2" cx="12" cy="12" r="12" fill="#0AB7A7"/>
<path d="M12.0209 21C9.11163 21 6.87209 20.2256 5.32325 18.6977C3.77442 17.1488 3 15.014 3 12.2721V11.9372C3 10.9744 3.10465 10.0953 3.29302 9.3C3.48139 8.50465 3.79535 7.75116 4.19302 7.0814C4.98837 5.74186 6.07674 4.73721 7.43721 4.04651C8.79767 3.35581 10.3465 3 12.0837 3C14.5116 3 16.5 3.58605 18.0488 4.75814C19.5977 5.93023 20.5395 7.7093 20.8326 10.0953V10.1581H17.6093V10.0953C17.3581 8.56744 16.7512 7.43721 15.7884 6.70465C14.8256 5.97209 13.6116 5.59535 12.1046 5.59535C10.3674 5.59535 8.92325 6.13953 7.79302 7.22791C6.66279 8.31628 6.1186 9.88605 6.1186 11.9372V12.2093C6.1186 14.1349 6.64186 15.6209 7.68837 16.6884C8.73488 17.7558 10.2 18.2791 12.0837 18.2791C13.6744 18.2791 14.9302 17.9023 15.8721 17.1698C16.814 16.4163 17.4 15.307 17.6512 13.8209V13.8H20.8744V13.8209C20.6233 16.2488 19.7023 18.0488 18.1116 19.2209C16.5209 20.414 14.4907 21 12.0209 21Z" fill="#0AB7A7"/>
<circle opacity="0.2" cx="40" cy="12" r="12" fill="#0AB7A7"/>
<path d="M40.0209 21C37.1116 21 34.8721 20.2256 33.3233 18.6977C31.7744 17.1488 31 15.014 31 12.2721V11.9372C31 10.9744 31.1046 10.0953 31.293 9.3C31.4814 8.50465 31.7953 7.75116 32.193 7.0814C32.9884 5.74186 34.0767 4.73721 35.4372 4.04651C36.7977 3.35581 38.3465 3 40.0837 3C42.5116 3 44.5 3.58605 46.0488 4.75814C47.5977 5.93023 48.5395 7.7093 48.8326 10.0953V10.1581H45.6093V10.0953C45.3581 8.56744 44.7512 7.43721 43.7884 6.70465C42.8256 5.97209 41.6116 5.59535 40.1046 5.59535C38.3674 5.59535 36.9233 6.13953 35.793 7.22791C34.6628 8.31628 34.1186 9.88605 34.1186 11.9372V12.2093C34.1186 14.1349 34.6419 15.6209 35.6884 16.6884C36.7349 17.7558 38.2 18.2791 40.0837 18.2791C41.6744 18.2791 42.9302 17.9023 43.8721 17.1698C44.814 16.4163 45.4 15.307 45.6512 13.8209V13.8H48.8744V13.8209C48.6233 16.2488 47.7023 18.0488 46.1116 19.2209C44.5209 20.414 42.4907 21 40.0209 21Z" fill="#0AB7A7"/>
<circle opacity="0.2" cx="68" cy="12" r="12" fill="#0AB7A7"/>
<path d="M68.0209 21C65.1116 21 62.8721 20.2256 61.3233 18.6977C59.7744 17.1488 59 15.014 59 12.2721V11.9372C59 10.9744 59.1046 10.0953 59.293 9.3C59.4814 8.50465 59.7953 7.75116 60.193 7.0814C60.9884 5.74186 62.0767 4.73721 63.4372 4.04651C64.7977 3.35581 66.3465 3 68.0837 3C70.5116 3 72.5 3.58605 74.0488 4.75814C75.5977 5.93023 76.5395 7.7093 76.8326 10.0953V10.1581H73.6093V10.0953C73.3581 8.56744 72.7512 7.43721 71.7884 6.70465C70.8256 5.97209 69.6116 5.59535 68.1046 5.59535C66.3674 5.59535 64.9233 6.13953 63.793 7.22791C62.6628 8.31628 62.1186 9.88605 62.1186 11.9372V12.2093C62.1186 14.1349 62.6419 15.6209 63.6884 16.6884C64.7349 17.7558 66.2 18.2791 68.0837 18.2791C69.6744 18.2791 70.9302 17.9023 71.8721 17.1698C72.814 16.4163 73.4 15.307 73.6512 13.8209V13.8H76.8744V13.8209C76.6233 16.2488 75.7023 18.0488 74.1116 19.2209C72.5209 20.414 70.4907 21 68.0209 21Z" fill="#0AB7A7"/>
<circle opacity="0.2" cx="96" cy="12" r="12" fill="#0AB7A7"/>
<path d="M96.0209 21C93.1116 21 90.8721 20.2256 89.3233 18.6977C87.7744 17.1488 87 15.014 87 12.2721V11.9372C87 10.9744 87.1046 10.0953 87.293 9.3C87.4814 8.50465 87.7953 7.75116 88.193 7.0814C88.9884 5.74186 90.0767 4.73721 91.4372 4.04651C92.7977 3.35581 94.3465 3 96.0837 3C98.5116 3 100.5 3.58605 102.049 4.75814C103.598 5.93023 104.54 7.7093 104.833 10.0953V10.1581H101.609V10.0953C101.358 8.56744 100.751 7.43721 99.7884 6.70465C98.8256 5.97209 97.6116 5.59535 96.1046 5.59535C94.3674 5.59535 92.9233 6.13953 91.793 7.22791C90.6628 8.31628 90.1186 9.88605 90.1186 11.9372V12.2093C90.1186 14.1349 90.6419 15.6209 91.6884 16.6884C92.7349 17.7558 94.2 18.2791 96.0837 18.2791C97.6744 18.2791 98.9302 17.9023 99.8721 17.1698C100.814 16.4163 101.4 15.307 101.651 13.8209V13.8H104.874V13.8209C104.623 16.2488 103.702 18.0488 102.112 19.2209C100.521 20.414 98.4907 21 96.0209 21Z" fill="#0AB7A7"/>
<circle opacity="0.2" cx="124" cy="12" r="12" fill="#0AB7A7"/>
<path d="M124.021 21C121.112 21 118.872 20.2256 117.323 18.6977C115.774 17.1488 115 15.014 115 12.2721V11.9372C115 10.9744 115.105 10.0953 115.293 9.3C115.481 8.50465 115.795 7.75116 116.193 7.0814C116.988 5.74186 118.077 4.73721 119.437 4.04651C120.798 3.35581 122.347 3 124.084 3C126.512 3 128.5 3.58605 130.049 4.75814C131.598 5.93023 132.54 7.7093 132.833 10.0953V10.1581H129.609V10.0953C129.358 8.56744 128.751 7.43721 127.788 6.70465C126.826 5.97209 125.612 5.59535 124.105 5.59535C122.367 5.59535 120.923 6.13953 119.793 7.22791C118.663 8.31628 118.119 9.88605 118.119 11.9372V12.2093C118.119 14.1349 118.642 15.6209 119.688 16.6884C120.735 17.7558 122.2 18.2791 124.084 18.2791C125.674 18.2791 126.93 17.9023 127.872 17.1698C128.814 16.4163 129.4 15.307 129.651 13.8209V13.8H132.874V13.8209C132.623 16.2488 131.702 18.0488 130.112 19.2209C128.521 20.414 126.491 21 124.021 21Z" fill="#0AB7A7"/>
</svg>
