<svg width="115" height="30" viewBox="0 0 115 30" fill="none" xmlns="http://www.w3.org/2000/svg">
<g clip-path="url(#clip0_5779_49828)">
<path fill-rule="evenodd" clip-rule="evenodd" d="M10.4066 16.059H6.19126L8.43065 8.77437L10.4066 16.059ZM4.21532 23.4226L5.53261 18.9834H10.9335L12.2508 23.4226H16.7296L11.9873 6.5745C11.7239 5.46797 11.197 5.1123 10.0114 5.1123H3.42495V6.62719H3.95187C4.74224 6.62719 5.13743 6.87747 5.13743 7.48343C5.13743 7.86544 5.13743 8.11572 4.74224 9.02465L0 23.4226" fill="#004A93"/>
<path d="M22.392 23.4226V6.45594C22.392 5.57336 21.8651 5.1123 20.943 5.1123H16.8594V6.62719H17.1228C17.9132 6.62719 18.3084 6.95651 18.3084 7.66785V23.4226" fill="#004A93"/>
<path d="M29.767 23.4226V6.45594C29.767 5.57336 29.2401 5.1123 28.318 5.1123H24.2344V6.62719H24.4978C25.2882 6.62719 25.6834 6.95651 25.6834 7.66785V23.4226" fill="#004A93"/>
<path fill-rule="evenodd" clip-rule="evenodd" d="M37.2826 6.73184C37.2826 5.51993 36.3605 4.80859 34.9115 4.80859C33.3307 4.80859 32.5404 5.51993 32.5404 6.73184C32.5404 7.97009 33.3307 8.6946 34.9115 8.6946C36.3605 8.6946 37.2826 7.97009 37.2826 6.73184ZM37.1509 23.4219V11.0657C37.1509 10.2095 36.624 9.70891 35.8336 9.70891H31.75V11.1974H32.0135C32.8038 11.1974 33.0673 11.5268 33.0673 12.2776V23.4219" fill="#004A93"/>
<path fill-rule="evenodd" clip-rule="evenodd" d="M46.8992 16.7705V19.5104C46.1088 20.3008 45.1867 20.7487 44.3963 20.7487C43.606 20.7487 43.2108 20.3667 43.2108 19.3392C43.2108 18.2063 43.4742 17.7716 44.3963 17.416C45.055 17.1393 45.7136 16.9681 46.8992 16.7705ZM41.1031 13.4904L41.4983 13.3324C42.5521 12.9108 43.2108 12.7527 44.0011 12.6078C44.3963 12.5552 44.9232 12.5025 45.1867 12.5025C46.504 12.5025 46.8992 12.9372 46.8992 14.1491V14.4916C45.055 14.7945 44.5281 14.8999 43.4742 15.1239C42.9473 15.2556 42.4204 15.4268 41.8935 15.6508C40.181 16.3358 39.3906 17.6531 39.3906 19.7212C39.3906 22.3163 40.4445 23.5545 42.8156 23.5545C43.7377 23.5545 44.6598 23.3438 45.3184 22.9222C45.9771 22.6192 46.2405 22.4612 47.0309 21.7367V22.1582C47.0309 23.0144 47.4261 23.4228 48.2165 23.4228H52.1683V22.0133H52.0366C51.2462 22.0133 50.851 21.6576 50.851 20.9463V14.2149C50.851 10.711 49.6655 9.52539 46.2405 9.52539C45.055 9.52539 44.0011 9.65712 42.9473 9.9074C41.8935 10.1577 41.3666 10.3421 40.181 10.9612" fill="#004A93"/>
<path fill-rule="evenodd" clip-rule="evenodd" d="M58.354 23.4218V14.1218C59.2761 13.2655 59.9348 12.9362 60.8569 12.9362C61.779 12.9362 62.0424 13.3314 62.0424 14.7277V23.4218H66.126V14.0691C66.126 12.1458 65.8626 11.3159 65.3356 10.5914C64.677 9.8801 63.8866 9.55078 62.7011 9.55078C61.1203 9.55078 59.9348 10.1304 58.0906 11.7243V10.9866C58.0906 10.1304 57.6954 9.70885 56.905 9.70885H52.9531V11.1974H53.0849C53.8752 11.1974 54.2704 11.5267 54.2704 12.2776V23.4218" fill="#004A93"/>
<mask id="mask0_5779_49828" style="mask-type:luminance" maskUnits="userSpaceOnUse" x="0" y="0" width="115" height="30">
<path d="M0 0.000707626H114.999V29.7715H0V0.000707626Z" fill="white"/>
</mask>
<g mask="url(#mask0_5779_49828)">
<path d="M78.7727 20.8005H72.7132L78.5091 12.5279V9.70885H69.8151C68.7612 9.70885 68.3661 10.1304 68.3661 11.1447V13.6344H69.8151V13.3578C69.8151 12.6069 70.2103 12.304 71.0006 12.304H74.1622L68.2344 20.5765V23.4219H78.7727" fill="#004A93"/>
<path fill-rule="evenodd" clip-rule="evenodd" d="M102.088 22.6713V7.15358C102.088 5.90215 101.561 5.49378 100.375 5.49378H96.8186V7.20632H97.2139C97.8725 7.20632 98.1359 7.45655 98.1359 8.22058V22.6713H102.088ZM104.195 22.6713H108.016V10.9606C108.016 9.775 107.489 9.30076 106.303 9.30076H104.195V22.6713ZM96.0283 22.6713V9.30076H93.9206C92.7351 9.30076 92.2081 9.775 92.2081 10.9606V22.6713H96.0283ZM112.494 14.873C112.494 22.1312 107.225 27.4267 100.112 27.4267C92.9985 27.4267 87.7293 22.1312 87.7293 14.873C87.7293 7.61469 92.9985 2.31915 100.112 2.31915C107.225 2.31915 112.494 7.61469 112.494 14.873ZM114.997 14.873C114.997 6.37644 108.674 0.000707626 100.112 0.000707626C91.6812 0.000707626 85.2266 6.37644 85.2266 14.873C85.2266 23.3958 91.6812 29.7715 100.112 29.7715C108.674 29.7715 114.997 23.3958 114.997 14.873Z" fill="#004A93"/>
</g>
</g>
<defs>
<clipPath id="clip0_5779_49828">
<rect width="115" height="29.7707" fill="white"/>
</clipPath>
</defs>
</svg>
