<svg width="120" height="21" viewBox="0 0 120 21" fill="none" xmlns="http://www.w3.org/2000/svg">
<g clip-path="url(#clip0_5779_49641)">
<path d="M15.2727 20.2314H0V0H108.893L111.074 3.86777H4.95868V8.13223H13.0909V12.3967H4.95868V16.1653H15.1736V20.2314H15.2727Z" fill="#153878"/>
<path d="M15.2727 20.2314H0V0H108.893L111.074 3.86777H4.95868V8.13223H13.0909V12.3967H4.95868V16.1653H15.1736V20.2314H15.2727Z" fill="#153878"/>
<path d="M29.1489 20.4001H22.8018C21.1158 20.4993 19.4299 20.0034 18.1406 19.0117C17.0497 17.9208 16.5538 16.334 16.653 14.7472V5.22656H21.6117V13.8547C21.6117 14.4497 21.7109 15.0447 22.1076 15.6398C22.6034 16.0365 23.1985 16.1357 23.7935 16.1357H28.1572C28.7522 16.2348 29.3472 16.0365 29.8431 15.6398C30.2398 15.1439 30.4381 14.5489 30.339 13.8547V5.22656H35.2976V14.7472C35.3968 16.334 34.901 17.8216 33.81 18.9125C32.5208 20.0034 30.8348 20.4993 29.1489 20.4001Z" fill="#153878"/>
<path d="M55.5646 13.1944C55.9613 12.4011 56.1596 11.6077 56.0604 10.7151V9.82255C56.1596 8.63247 55.8621 7.4424 55.0687 6.54983C54.077 5.65727 52.7877 5.16139 51.3993 5.26056H37.8125V20.2358H42.7712V16.4672H49.4158C49.8125 16.368 50.3084 16.5664 50.6059 16.7647C50.9034 17.1614 51.0026 17.6573 50.9034 18.1531V20.1366H55.8621V17.3597C55.9612 16.4672 55.6637 15.4754 55.0687 14.7812C54.7712 14.4837 54.4736 14.2854 54.077 14.1862C54.7712 14.087 55.1679 13.6903 55.5646 13.1944ZM51.2009 11.1118C51.2009 11.4093 51.1017 11.806 50.9034 12.0044C50.6059 12.2027 50.2092 12.3019 49.8125 12.3019H42.7712V9.32668H49.4158C49.9117 9.32668 50.4075 9.32669 50.8042 9.52504C51.0026 9.62422 51.2009 9.82256 51.2009 10.5168V11.1118Z" fill="#153878"/>
<path d="M76.6861 6.15339C75.5952 5.36 74.1076 5.0625 71.8266 5.0625H64.7852C62.5042 5.0625 61.0166 5.36 59.9257 6.15339C58.7357 7.04595 58.1406 8.43438 58.1406 10.6162V14.8807C58.1406 16.9633 58.7357 18.4509 59.9257 19.3435C61.0166 20.1369 62.5042 20.4344 64.7852 20.4344H71.8266C74.1076 20.4344 75.5952 20.1369 76.6861 19.3435C77.8761 18.4509 78.4712 17.0625 78.4712 14.8807V10.6162C78.4712 8.43438 77.8761 7.04595 76.6861 6.15339ZM73.4133 13.4923C73.5125 14.1865 73.3142 14.8807 73.0167 15.5749C72.7191 15.9716 72.1241 16.1699 71.2315 16.1699H65.5786C64.5869 16.1699 64.091 15.9716 63.7935 15.5749C63.3968 14.9798 63.2976 14.1865 63.3968 13.4923V11.9055C63.2976 11.2113 63.496 10.517 63.8927 9.922C64.3885 9.42613 65.1819 9.1286 65.9753 9.22777H71.1324C71.9258 9.1286 72.6199 9.32696 73.215 9.922C73.6117 10.517 73.7109 11.2113 73.7109 11.9055L73.4133 13.4923Z" fill="#153878"/>
<path d="M97.6143 6.74932C96.7217 5.75759 95.2341 5.26172 93.2506 5.26172H80.9531V20.2369H85.9118V16.5675H94.4407C95.8292 16.6667 97.1184 16.0717 97.9118 14.9807C98.5069 13.989 98.9035 12.8981 98.8043 11.708V10.5179C98.9035 9.12951 98.5069 7.74106 97.6143 6.74932ZM93.6474 11.2121C93.6474 11.5097 93.5481 11.8072 93.3498 12.1047C93.1514 12.303 92.7548 12.5014 92.4573 12.4022H85.9118V9.32784H92.1598C92.5564 9.32784 93.0523 9.427 93.3498 9.62535C93.5481 9.92287 93.6474 10.2204 93.6474 10.5179V11.2121Z" fill="#153878"/>
<path d="M111.797 5.26172H105.648L97.5156 20.2369H103.069L104.359 17.6584H112.987L114.375 20.2369H119.929L111.797 5.26172ZM106.342 13.989L108.623 9.42702L111.003 13.989H106.342Z" fill="#153878"/>
</g>
<defs>
<clipPath id="clip0_5779_49641">
<rect width="120" height="20.4298" fill="white"/>
</clipPath>
</defs>
</svg>
