<svg width="144" height="48" viewBox="0 0 144 48" fill="none" xmlns="http://www.w3.org/2000/svg">
<g clip-path="url(#clip0_5779_49513)">
<path d="M9 24.0137C9.02661 24.2798 9.05323 24.5726 9.10645 24.8387C10.3839 34.2066 15.6267 40.6471 24.7285 43.9738C24.7552 43.9738 24.8084 44.0004 24.835 44.0004V24.0137H9Z" fill="#1B1C4D"/>
<path d="M41.3363 8.57751V13.0486C41.3363 16.4019 41.3629 19.8882 41.2564 23.2947C41.2564 23.5343 41.2298 23.7738 41.2298 24.0133H24.8359V4L41.3363 8.57751Z" fill="#00B9A6"/>
<path d="M101.216 35.4835C99.1131 35.4835 97.3566 35.0577 95.9461 34.1794C94.5356 33.3012 93.4711 32.1036 92.7525 30.6132V42.5094H89V13.3145H92.2468L92.6194 18.0783C93.338 16.4549 94.4291 15.1508 95.8929 14.1661C97.3566 13.1814 99.1929 12.6758 101.322 12.6758C102.36 12.6758 103.318 12.7822 104.223 13.0218C105.128 13.2613 105.953 13.5806 106.751 14.0065C108.295 14.9113 109.492 16.2154 110.317 17.9186C111.169 19.6219 111.595 21.6711 111.595 24.0929V24.4655C111.595 25.6631 111.488 26.7543 111.249 27.739C111.009 28.7237 110.69 29.6552 110.264 30.4802C109.386 32.1302 108.162 33.3544 106.591 34.2061C105.021 35.0577 103.238 35.4835 101.216 35.4835ZM100.071 32.1302C102.52 32.1302 104.409 31.4649 105.713 30.1076C107.017 28.7503 107.683 26.8607 107.683 24.4123V24.0663C107.683 21.4848 106.991 19.4888 105.633 18.0783C104.276 16.6678 102.466 15.9492 100.231 15.9492C99.4857 15.9492 98.7671 16.0291 98.0752 16.2154C97.3832 16.4017 96.7711 16.6412 96.2122 16.9605C95.0679 17.6525 94.1896 18.584 93.5509 19.8082C92.9122 21.0324 92.5928 22.4163 92.5928 23.9865V24.226C92.5928 26.6212 93.2582 28.5374 94.5888 29.9745C95.9195 31.4116 97.7558 32.1302 100.071 32.1302Z" fill="#1B1C4D"/>
<path d="M74.7907 35.537C71.0914 35.537 68.2438 34.5523 66.2744 32.6095C64.305 30.6401 63.3203 27.9255 63.3203 24.4392V24.0134C63.3203 22.7891 63.4534 21.6714 63.6929 20.6601C63.9324 19.6487 64.3316 18.6907 64.8373 17.839C65.8486 16.1358 67.2325 14.8583 68.9624 13.9801C70.6922 13.1018 72.6616 12.6494 74.8705 12.6494C77.9577 12.6494 80.486 13.3946 82.4554 14.8849C84.4248 16.3753 85.6224 18.6374 85.995 21.6714V21.7512H81.8965V21.6714C81.5771 19.7286 80.8053 18.2915 79.5811 17.36C78.3569 16.4285 76.8133 15.9495 74.8972 15.9495C72.6882 15.9495 70.8519 16.6414 69.4148 18.0253C67.9777 19.4092 67.2857 21.4052 67.2857 24.0134V24.3593C67.2857 26.8078 67.951 28.6973 69.2817 30.0546C70.6124 31.4119 72.4753 32.0772 74.8705 32.0772C76.8932 32.0772 78.49 31.5982 79.6876 30.6667C80.8852 29.7086 81.6304 28.2981 81.9497 26.4086V26.3819H86.0482V26.4086C85.7288 29.4957 84.5578 31.7845 82.5352 33.2748C80.5126 34.7918 77.9311 35.537 74.7907 35.537Z" fill="#1B1C4D"/>
<path d="M135.385 16.6682V13.2085H128.306V7.35352H125.006C125.006 7.56642 125.006 7.88578 124.98 8.3116C124.98 8.73741 124.953 9.18984 124.926 9.61566C124.926 9.82857 124.926 10.0149 124.9 10.2012C124.873 10.3874 124.873 10.5205 124.873 10.6536C124.82 11.4254 124.74 11.9843 124.607 12.3835C124.474 12.756 124.261 13.0222 123.915 13.1552C123.755 13.2085 123.569 13.2617 123.33 13.2883C123.09 13.3149 122.797 13.3415 122.478 13.3415C122.159 13.3415 121.733 13.3415 121.227 13.3682C120.855 13.3682 119.338 13.3948 118.433 13.3948H114.414V35.0581H118.433V16.6682H124.66V26.2224C124.66 28.458 124.9 30.2411 125.379 31.5185C125.858 32.796 126.656 33.7274 127.801 34.2597C128.36 34.5524 129.051 34.7387 129.876 34.8718C130.701 35.0049 131.606 35.0581 132.618 35.0581H135.359V31.4387H133.496C132.085 31.4387 131.021 31.3056 130.276 31.0395C129.53 30.7733 128.998 30.2145 128.732 29.3628C128.599 28.9636 128.493 28.4314 128.439 27.8193C128.36 27.2071 128.333 26.462 128.333 25.6636V16.6682H135.385Z" fill="#00B9A6"/>
</g>
<defs>
<clipPath id="clip0_5779_49513">
<rect width="126.387" height="40" fill="white" transform="translate(9 4)"/>
</clipPath>
</defs>
</svg>
